PathFileType	4	(X/Y/Z)	SUBJ62_3_walk_RCNL2025.trc
DataRate	CameraRate	NumFrames	NumMarkers	Units	OrigDataRate	OrigDataStartFrame	OrigNumFrames
100	100	8	25	mm	100	277	316
Frame#	Time	R_Shoulder			L_Shoulder			C7			J_Notch			R_Elbow			L_Elbow			R_Wrist			L_Wrist			R_Asis			L_Asis			Sacral			Thoracic			Sternum			R_Thigh_Lateral			R_Knee_Lateral			R_Shank_Lateral			R_Ankle_Lateral			R_Heel			R_Toe			L_Thigh_Lateral			L_Knee_Lateral			L_Shank_Lateral			L_Ankle_Lateral			L_Heel			L_Toe		
		X1	Y1	Z1	X2	Y2	Z2	X3	Y3	Z3	X4	Y4	Z4	X5	Y5	Z5	X6	Y6	Z6	X7	Y7	Z7	X8	Y8	Z8	X9	Y9	Z9	X10	Y10	Z10	X11	Y11	Z11	X12	Y12	Z12	X13	Y13	Z13	X14	Y14	Z14	X15	Y15	Z15	X16	Y16	Z16	X17	Y17	Z17	X18	Y18	Z18	X19	Y19	Z19	X20	Y20	Z20	X21	Y21	Z21	X22	Y22	Z22	X23	Y23	Z23	X24	Y24	Z24	X25	Y25	Z25
277	2.76000000	1019.690674	1283.669067	291.455536	986.028381	1302.847168	-46.412071	929.236450	1358.508423	130.266266	1061.731445	1271.377441	116.849319	1041.989014	991.131714	370.777283	930.560852	1003.814270	-111.516289	1196.231689	832.418274	354.369186	974.732819	788.242096	-98.069134	1059.895752	877.754028	262.271729	1069.485107	882.790894	2.413944	889.893127	874.882141	123.127800	867.126770	1162.402588	126.719597	1082.548950	1072.654541	117.348816	979.213562	487.169281	315.948608	977.891418	428.642975	238.490341	958.511902	251.293182	271.095520	911.158875	66.865837	197.961517	854.832397	54.284859	161.190994	1010.778931	46.535782	180.130508	1137.336060	500.887817	-56.875462	1145.460693	441.436737	-8.799162	1094.709473	260.193237	-40.690609	1029.335693	105.497459	26.229061	977.754944	120.350082	75.321381	1124.395508	56.433884	27.529568
278	2.77000000	1030.353394	1282.977661	291.000946	996.351562	1301.917725	-46.804249	939.865540	1357.777954	129.997208	1072.266479	1270.472778	116.554863	1056.676514	991.387085	371.391846	935.343933	1003.502686	-110.597572	1215.738953	837.461151	353.215973	976.014740	787.349152	-96.760872	1069.435425	876.521423	262.131866	1080.060669	882.198669	2.149664	900.112244	874.245300	122.205933	877.545471	1161.740234	126.430046	1092.927490	1071.733032	117.126205	982.947998	487.103058	315.418976	981.413025	428.431122	238.014114	960.240417	251.286621	270.741547	911.403748	67.160652	197.528885	855.136414	54.907673	160.638107	1010.877319	46.463024	179.901184	1151.671143	501.686157	-57.502083	1159.595093	441.248779	-9.390162	1120.118408	256.003784	-40.866833	1064.896362	97.767395	25.913836	1011.820801	109.386765	74.870270	1162.931152	55.322815	27.768791
279	2.78000000	1040.964111	1282.120605	290.489655	1006.753784	1300.830811	-47.277233	950.501831	1356.891602	129.625229	1082.827026	1269.422241	116.203148	1071.144409	991.513733	371.891205	940.341248	1003.116394	-109.668358	1234.787048	842.452911	351.950867	977.588593	786.450745	-95.441799	1078.976929	875.204041	261.950775	1090.766846	881.423645	1.809102	910.408081	873.478699	121.213608	887.988892	1160.914307	126.001541	1103.343994	1070.668945	116.855103	986.944702	486.998108	314.859314	985.103271	428.204865	237.508163	962.026611	251.306931	270.360016	911.657593	67.512039	197.043839	855.474304	55.610100	159.998505	1010.986267	46.411232	179.679031	1165.087891	501.985046	-58.104225	1172.899658	440.645355	-9.970624	1145.025024	252.314697	-41.189030	1100.655518	90.980392	25.419146	1046.260620	99.212471	74.270378	1201.212524	55.253880	27.792723
280	2.79000000	1051.515259	1281.113403	289.918457	1017.231506	1299.603516	-47.837753	961.143982	1355.860718	129.143173	1093.412964	1268.241211	115.788338	1085.385132	991.511414	372.257019	945.580078	1002.656921	-108.733139	1253.371033	847.377197	350.601456	979.479248	785.542145	-94.128036	1088.532104	873.825684	261.726196	1101.622192	880.473572	1.404149	920.790771	872.587769	120.131699	898.460815	1159.933838	125.429810	1113.801636	1069.477539	116.529724	991.256104	486.842590	314.270813	989.005005	427.962280	236.968887	963.903076	251.353912	269.939270	911.927429	67.933708	196.506378	855.848755	56.414177	159.281830	1011.113708	46.389740	179.471359	1177.563721	501.748535	-58.684658	1185.413574	439.642761	-10.530503	1169.305908	249.189682	-41.684017	1136.313965	85.272476	24.721371	1080.834351	90.013649	73.475449	1238.951782	56.290661	27.565016
281	2.80000000	1062.002808	1279.973999	289.283234	1027.782349	1298.256104	-48.492699	971.791687	1354.700195	128.544022	1104.024048	1266.948120	115.304367	1099.388184	991.380249	372.469238	951.085876	1002.125671	-107.797806	1271.489380	852.217712	349.196518	981.709839	784.618805	-92.833687	1098.115356	872.409607	261.455200	1112.639893	879.355469	0.946588	931.269226	871.579773	118.944244	908.965881	1158.812134	124.711006	1124.303955	1068.176880	116.144310	995.916260	486.630615	313.656433	993.159119	427.703400	236.394669	965.904724	251.429794	269.474579	912.221863	68.440697	195.924713	856.261536	57.343136	158.508301	1011.267029	46.405704	179.283279	1189.104736	500.957550	-59.250835	1197.203125	438.276978	-11.066120	1192.850220	246.665710	-42.370232	1171.538696	80.724510	23.797424	1115.246094	81.931053	72.442612	1275.836426	58.426010	27.061256
282	2.81000000	1072.427612	1278.723022	288.579010	1038.405762	1296.810913	-49.249008	982.445679	1353.428345	127.820862	1114.660278	1265.563843	114.744804	1113.140625	991.121887	372.508453	956.884949	1001.524475	-106.871185	1289.140381	856.955505	347.762177	984.303223	783.676361	-91.571465	1107.742920	870.977173	261.135101	1123.826904	878.077271	0.447483	941.850830	870.464722	117.640350	919.509216	1157.565674	123.841942	1134.855347	1066.787231	115.693459	1000.941467	486.364166	313.020752	997.602600	427.430573	235.787109	968.067261	251.540039	268.969849	912.550659	69.048813	195.316071	856.714233	58.420258	157.708282	1011.452515	46.463142	179.116776	1199.749878	499.616028	-59.812637	1208.359619	436.602631	-11.580294	1215.565308	244.751068	-43.255795	1205.977417	77.356285	22.627571	1149.152588	75.048897	71.138588	1311.542358	61.575218	26.272352
283	2.82000000	1082.795410	1277.383423	287.799896	1049.102417	1295.291016	-50.113300	993.108215	1352.065552	126.967148	1125.322632	1264.111694	114.102676	1126.628784	990.740234	372.358765	963.005249	1000.855652	-105.966377	1306.319336	861.567200	346.318359	987.283875	782.710846	-90.353981	1117.431274	869.546814	260.764465	1135.183594	876.650146	-0.083291	952.541687	869.256592	116.215324	930.096497	1156.214478	122.820763	1145.460938	1065.330566	115.172256	1006.333496	486.053864	312.370239	1002.367310	427.148285	235.151901	970.425964	251.693008	268.437500	912.924866	69.774147	194.705994	857.208374	59.667953	156.920273	1011.675354	46.563011	178.971069	1209.573120	497.756683	-60.380306	1218.994507	434.690125	-12.082207	1237.378296	243.423050	-44.337528	1239.272949	75.122406	21.200747	1182.177490	69.387558	69.546326	1345.746460	65.575111	25.206507
284	2.83000000	1093.116333	1275.979248	286.939362	1059.874146	1293.720093	-51.091419	1003.782715	1350.633911	125.977119	1136.013184	1262.615967	113.370491	1139.839722	990.242249	372.010773	969.477600	1000.122498	-105.101562	1323.016113	866.023590	344.876556	990.679657	781.719666	-89.195534	1127.197754	868.133972	260.343658	1146.703979	875.090210	-0.637464	963.347473	867.973450	114.671074	940.734314	1154.781250	121.647850	1156.126709	1063.830322	114.576233	1012.083069	485.717560	311.712738	1007.478333	426.862457	234.498978	973.014526	251.899094	267.896515	913.356689	70.632668	194.126053	857.746338	61.107063	156.186935	1011.940125	46.704231	178.843903	1218.686157	495.445099	-60.962990	1229.233521	432.619873	-12.586890	1258.234131	242.626312	-45.600872	1271.074463	73.911369	19.520926	1213.929077	64.901474	67.670891	1378.139771	70.190208	23.888950
